<?xml version="1.0" encoding="utf-8"?>
<!-- Generator: Adobe Illustrator 16.0.3, SVG Export Plug-In . SVG Version: 6.00 Build 0)  -->
<!DOCTYPE svg PUBLIC "-//W3C//DTD SVG 1.1//EN" "http://www.w3.org/Graphics/SVG/1.1/DTD/svg11.dtd">
<svg version="1.1" id="Ebene_1" xmlns="http://www.w3.org/2000/svg" xmlns:xlink="http://www.w3.org/1999/xlink" x="0px" y="0px"
	 width="285px" height="94px" viewBox="0 0 285 94" enable-background="new 0 0 285 94" xml:space="preserve">
<g>
	<g>
		<defs>
			<rect id="SVGID_1_" x="-0.006" y="0.005" width="100.57" height="93.916"/>
		</defs>
		<clipPath id="SVGID_2_">
			<use xlink:href="#SVGID_1_"  overflow="visible"/>
		</clipPath>
		<g clip-path="url(#SVGID_2_)" enable-background="new    ">
			<g>
				<defs>
					<rect id="SVGID_3_" x="-0.53" y="-0.661" width="101.616" height="95.102"/>
				</defs>
				<clipPath id="SVGID_4_">
					<use xlink:href="#SVGID_3_"  overflow="visible"/>
				</clipPath>
				
					<line clip-path="url(#SVGID_4_)" fill="none" stroke="#F9B208" stroke-width="1.9273" stroke-linecap="round" stroke-miterlimit="10" x1="45.801" y1="36.212" x2="45.801" y2="45.263"/>
				
					<line clip-path="url(#SVGID_4_)" fill="none" stroke="#F9B208" stroke-width="1.9273" stroke-linecap="round" stroke-miterlimit="10" x1="45.807" y1="45.267" x2="37.921" y2="49.81"/>
				
					<line clip-path="url(#SVGID_4_)" fill="none" stroke="#DF4390" stroke-width="1.4862" stroke-linecap="round" stroke-miterlimit="10" x1="53.776" y1="49.605" x2="45.806" y2="45.261"/>
				
					<line clip-path="url(#SVGID_4_)" fill="none" stroke="#F9B208" stroke-width="1.9273" stroke-linecap="round" stroke-miterlimit="10" x1="53.776" y1="49.605" x2="45.806" y2="45.261"/>
				
					<line clip-path="url(#SVGID_4_)" fill="none" stroke="#F9B208" stroke-width="1.9273" stroke-linecap="round" stroke-miterlimit="10" x1="45.816" y1="36.208" x2="37.923" y2="31.616"/>
				
					<line clip-path="url(#SVGID_4_)" fill="none" stroke="#8B86C0" stroke-width="1.9273" stroke-linecap="round" stroke-miterlimit="10" x1="53.749" y1="31.255" x2="41.125" y2="23.94"/>
				
					<line clip-path="url(#SVGID_4_)" fill="none" stroke="#8B86C0" stroke-width="1.9273" stroke-linecap="round" stroke-miterlimit="10" x1="41.122" y1="16.963" x2="41.122" y2="23.931"/>
				<g clip-path="url(#SVGID_4_)">
					<defs>
						<rect id="SVGID_5_" x="-0.006" y="-0.137" width="100.569" height="94.058"/>
					</defs>
					<clipPath id="SVGID_6_">
						<use xlink:href="#SVGID_5_"  overflow="visible"/>
					</clipPath>
					
						<line clip-path="url(#SVGID_6_)" fill="none" stroke="#8B86C0" stroke-width="1.9273" stroke-linecap="round" stroke-miterlimit="10" x1="53.769" y1="60.407" x2="2.003" y2="90.391"/>
				</g>
				
					<line clip-path="url(#SVGID_4_)" fill="none" stroke="#8B86C0" stroke-width="1.9273" stroke-linecap="round" stroke-miterlimit="10" x1="53.77" y1="31.271" x2="53.77" y2="60.397"/>
				
					<line clip-path="url(#SVGID_4_)" fill="none" stroke="#F08807" stroke-width="1.9273" stroke-linecap="round" stroke-miterlimit="10" x1="77.801" y1="29.186" x2="77.801" y2="23.08"/>
				
					<line clip-path="url(#SVGID_4_)" fill="none" stroke="#F08807" stroke-width="1.9273" stroke-linecap="round" stroke-miterlimit="10" x1="58.862" y1="39.968" x2="77.801" y2="29.186"/>
				
					<line clip-path="url(#SVGID_4_)" fill="none" stroke="#F08807" stroke-width="1.9273" stroke-linecap="round" stroke-miterlimit="10" x1="85.332" y1="18.734" x2="77.801" y2="23.08"/>
				
					<line clip-path="url(#SVGID_4_)" fill="none" stroke="#F08807" stroke-width="1.9273" stroke-linecap="round" stroke-miterlimit="10" x1="58.859" y1="63.398" x2="24.939" y2="83.058"/>
				
					<line clip-path="url(#SVGID_4_)" fill="none" stroke="#F08807" stroke-width="1.9273" stroke-linecap="round" stroke-miterlimit="10" x1="58.862" y1="39.968" x2="58.862" y2="63.39"/>
				<g clip-path="url(#SVGID_4_)">
					<defs>
						<rect id="SVGID_7_" x="-0.006" y="-0.137" width="100.569" height="94.058"/>
					</defs>
					<clipPath id="SVGID_8_">
						<use xlink:href="#SVGID_7_"  overflow="visible"/>
					</clipPath>
					
						<line clip-path="url(#SVGID_8_)" fill="none" stroke="#DB1882" stroke-width="1.9273" stroke-linecap="round" stroke-miterlimit="10" x1="63.831" y1="10.755" x2="63.831" y2="1.872"/>
				</g>
				
					<line clip-path="url(#SVGID_4_)" fill="none" stroke="#DB1882" stroke-width="1.9273" stroke-linecap="round" stroke-miterlimit="10" x1="56.244" y1="23.98" x2="56.244" y2="15.18"/>
				
					<line clip-path="url(#SVGID_4_)" fill="none" stroke="#DB1882" stroke-width="1.9273" stroke-linecap="round" stroke-miterlimit="10" x1="63.949" y1="28.369" x2="56.26" y2="23.98"/>
				
					<line clip-path="url(#SVGID_4_)" fill="none" stroke="#DB1882" stroke-width="1.9273" stroke-linecap="round" stroke-miterlimit="10" x1="56.244" y1="15.181" x2="48.723" y2="10.792"/>
				
					<line clip-path="url(#SVGID_4_)" fill="none" stroke="#DB1882" stroke-width="1.9273" stroke-linecap="round" stroke-miterlimit="10" x1="71.437" y1="23.99" x2="63.964" y2="28.39"/>
				
					<line clip-path="url(#SVGID_4_)" fill="none" stroke="#DB1882" stroke-width="1.9273" stroke-linecap="round" stroke-miterlimit="10" x1="71.442" y1="15.172" x2="71.442" y2="23.982"/>
				
					<line clip-path="url(#SVGID_4_)" fill="none" stroke="#DB1882" stroke-width="1.9273" stroke-linecap="round" stroke-miterlimit="10" x1="71.442" y1="15.172" x2="79.051" y2="10.779"/>
				
					<line clip-path="url(#SVGID_4_)" fill="none" stroke="#DB1882" stroke-width="1.9273" stroke-linecap="round" stroke-miterlimit="10" x1="63.831" y1="10.755" x2="71.44" y2="15.173"/>
				<g clip-path="url(#SVGID_4_)">
					<defs>
						<rect id="SVGID_9_" x="-0.006" y="-0.137" width="100.569" height="94.058"/>
					</defs>
					<clipPath id="SVGID_10_">
						<use xlink:href="#SVGID_9_"  overflow="visible"/>
					</clipPath>
					
						<line clip-path="url(#SVGID_10_)" fill="none" stroke="#DB1882" stroke-width="1.9273" stroke-linecap="round" stroke-miterlimit="10" x1="63.953" y1="66.703" x2="20.449" y2="91.912"/>
				</g>
				
					<line clip-path="url(#SVGID_4_)" fill="none" stroke="#DB1882" stroke-width="1.9273" stroke-linecap="round" stroke-miterlimit="10" x1="63.953" y1="28.386" x2="63.953" y2="66.691"/>
				
					<line clip-path="url(#SVGID_4_)" fill="none" stroke="#18B6CD" stroke-width="1.9273" stroke-linecap="round" stroke-miterlimit="10" x1="83.688" y1="45.689" x2="83.683" y2="38.117"/>
				
					<line clip-path="url(#SVGID_4_)" fill="none" stroke="#18B6CD" stroke-width="1.9273" stroke-linecap="round" stroke-miterlimit="10" x1="69.022" y1="53.773" x2="83.687" y2="45.689"/>
				<g clip-path="url(#SVGID_4_)">
					<defs>
						<rect id="SVGID_11_" x="-0.006" y="-0.137" width="100.569" height="94.058"/>
					</defs>
					<clipPath id="SVGID_12_">
						<use xlink:href="#SVGID_11_"  overflow="visible"/>
					</clipPath>
					
						<polyline clip-path="url(#SVGID_12_)" fill="none" stroke="#18B6CD" stroke-width="1.9273" stroke-linecap="round" stroke-miterlimit="10" points="
						98.554,45.821 91.323,50.01 83.688,45.691 					"/>
				</g>
				
					<line clip-path="url(#SVGID_4_)" fill="none" stroke="#18B6CD" stroke-width="1.9273" stroke-linecap="round" stroke-miterlimit="10" x1="69.003" y1="69.671" x2="38.844" y2="87.181"/>
				
					<line clip-path="url(#SVGID_4_)" fill="none" stroke="#18B6CD" stroke-width="1.9273" stroke-linecap="round" stroke-miterlimit="10" x1="69.02" y1="42.701" x2="69.02" y2="69.701"/>
				
					<line clip-path="url(#SVGID_4_)" fill="none" stroke="#18B6CD" stroke-width="1.9273" stroke-linecap="round" stroke-miterlimit="10" x1="69.02" y1="42.696" x2="77.801" y2="37.603"/>
			</g>
		</g>
	</g>
	<path fill="#797A7F" d="M253.927,77.174c1.578,0,2.24,0.893,2.24,2.422v0.344h-4.502v-0.411
		C251.665,78.066,252.351,77.174,253.927,77.174 M253.927,75.001c-2.834,0-4.615,1.83-4.615,4.595v2.858
		c0,2.628,1.664,4.594,4.615,4.594c0.869,0,2.535-0.251,3.566-0.775c0.436-0.207,0.617-0.572,0.617-0.983
		c0-0.597-0.457-1.077-1.074-1.077c-0.23,0-0.459,0.069-0.801,0.206c-0.594,0.229-1.301,0.481-2.309,0.481
		c-1.668,0-2.262-1.167-2.262-2.355v-0.434h5.418c0.912,0,1.439-0.731,1.439-1.395v-1.121
		C258.522,76.854,256.737,75.001,253.927,75.001 M245.287,70.567c-0.686,0-1.189,0.481-1.189,1.166v14.15
		c0,0.686,0.504,1.165,1.189,1.165c0.663,0,1.167-0.479,1.167-1.165v-14.15C246.454,71.048,245.95,70.567,245.287,70.567
		 M239.619,75.001c-0.664,0-1.168,0.481-1.168,1.167v8.411c-0.73,0.184-1.463,0.321-2.24,0.321c-1.51,0-2.262-0.801-2.262-2.263
		v-6.469c0-0.686-0.502-1.167-1.189-1.167c-0.662,0-1.166,0.481-1.166,1.167v6.377c0,2.973,1.555,4.503,4.617,4.503
		c1.26,0,2.449-0.229,3.566-0.593c0.641-0.205,1.029-0.709,1.029-1.327v-8.96C240.807,75.482,240.305,75.001,239.619,75.001
		 M220.509,70.567c-0.686,0-1.188,0.481-1.188,1.166v14.15c0,0.686,0.502,1.165,1.188,1.165c0.662,0,1.164-0.479,1.164-1.165v-7.909
		c0.709-0.548,1.488-0.8,2.287-0.8c1.42,0,2.216,0.754,2.216,2.24v6.47c0,0.686,0.504,1.165,1.189,1.165
		c0.664,0,1.166-0.479,1.166-1.165v-6.332c0-2.926-1.531-4.551-4.296-4.551c-0.756,0-1.809,0.254-2.563,0.665v-3.933
		C221.673,71.048,221.171,70.567,220.509,70.567 M213.331,75.001c-2.721,0-4.619,1.647-4.619,4.595v2.858
		c0,2.836,1.785,4.594,4.619,4.594c1.188,0,2.375-0.298,3.291-0.775c0.367-0.207,0.596-0.572,0.596-0.983
		c0-0.642-0.459-1.077-1.098-1.077c-0.414,0-0.688,0.161-1.074,0.321c-0.459,0.206-1.053,0.366-1.762,0.366
		c-1.395,0-2.217-0.846-2.217-2.446v-2.858c0-1.599,0.846-2.422,2.217-2.422c0.709,0,1.281,0.137,1.738,0.32
		c0.434,0.184,0.684,0.365,1.143,0.365c0.619,0,1.053-0.455,1.053-1.073c0-0.411-0.229-0.778-0.596-0.984
		C215.706,75.3,214.519,75.001,213.331,75.001 M202.359,75.001c-2.311,0-3.955,1.258-3.955,3.338c0,1.99,1.279,2.675,2.264,3.063
		l1.873,0.733c0.754,0.297,1.557,0.732,1.557,1.44c0,0.775-0.709,1.325-1.854,1.325c-1.006,0-1.691-0.274-2.217-0.458
		c-0.207-0.068-0.412-0.136-0.572-0.136c-0.641,0-1.051,0.434-1.051,1.074c0,0.457,0.252,0.777,0.639,0.959
		c0.777,0.388,1.967,0.708,3.316,0.708c2.629,0,4.021-1.553,4.021-3.497c0-1.668-0.867-2.585-2.352-3.132l-2.014-0.755
		c-0.525-0.205-1.326-0.525-1.326-1.304c0-0.752,0.732-1.21,1.715-1.21c0.846,0,1.371,0.206,1.963,0.411
		c0.209,0.069,0.436,0.137,0.668,0.137c0.547,0,1.049-0.411,1.049-1.074c0-0.413-0.229-0.755-0.617-0.96
		C204.666,75.275,203.455,75.001,202.359,75.001 M191.453,77.174c1.58,0,2.242,0.893,2.242,2.422v0.344h-4.504v-0.411
		C189.191,78.066,189.877,77.174,191.453,77.174 M191.453,75.001c-2.832,0-4.617,1.83-4.617,4.595v2.858
		c0,2.628,1.672,4.594,4.617,4.594c0.869,0,2.539-0.251,3.568-0.775c0.434-0.207,0.617-0.572,0.617-0.983
		c0-0.597-0.457-1.077-1.078-1.077c-0.227,0-0.455,0.069-0.797,0.206c-0.596,0.229-1.303,0.481-2.311,0.481
		c-1.668,0-2.262-1.167-2.262-2.355v-0.434h5.418c0.916,0,1.439-0.731,1.439-1.395v-1.121
		C196.049,76.854,194.266,75.001,191.453,75.001 M179.661,77.174c1.486,0,2.26,0.777,2.26,2.24v3.201c0,1.44-0.797,2.286-2.26,2.286
		c-0.779,0-1.555-0.114-2.266-0.321v-6.629C178.06,77.471,178.813,77.174,179.661,77.174 M176.231,70.567
		c-0.688,0-1.189,0.481-1.189,1.166v13.372c0,0.619,0.387,1.146,0.982,1.351c1.145,0.389,2.379,0.593,3.637,0.593
		c2.834,0,4.617-1.53,4.617-4.572v-2.925c0-2.995-1.807-4.551-4.391-4.551c-0.73,0-1.738,0.231-2.492,0.665v-3.933
		C177.396,71.048,176.894,70.567,176.231,70.567 M170.265,75.001c-2.08,0-3.429,1.327-3.429,3.452v7.431
		c0,0.686,0.501,1.165,1.188,1.165c0.66,0,1.164-0.479,1.164-1.165v-7.36c0-0.801,0.504-1.303,1.234-1.303
		c0.572,0,1.031,0.137,1.373,0.137c0.664,0,1.119-0.457,1.119-1.075c0-0.593-0.344-1.006-0.936-1.119
		C171.544,75.07,170.927,75.001,170.265,75.001 M159.361,77.174c1.578,0,2.238,0.893,2.238,2.422v0.344h-4.504v-0.411
		C157.096,78.066,157.783,77.174,159.361,77.174 M159.361,75.001c-2.836,0-4.617,1.83-4.617,4.595v2.858
		c0,2.628,1.668,4.594,4.617,4.594c0.867,0,2.537-0.251,3.566-0.775c0.434-0.207,0.617-0.572,0.617-0.983
		c0-0.597-0.457-1.077-1.074-1.077c-0.229,0-0.457,0.069-0.803,0.206c-0.594,0.229-1.303,0.481-2.307,0.481
		c-1.67,0-2.266-1.167-2.266-2.355v-0.434h5.42c0.914,0,1.439-0.731,1.439-1.395v-1.121
		C163.955,76.854,162.174,75.001,159.361,75.001 M151.701,75.001c-0.5,0-0.957,0.231-1.119,0.824l-2.012,7.75l-1.964-7.499
		c-0.184-0.685-0.664-1.075-1.348-1.075c-0.688,0-1.168,0.39-1.352,1.075l-1.942,7.499l-2.036-7.75
		c-0.159-0.593-0.615-0.824-1.096-0.824c-0.755,0-1.166,0.55-1.166,1.167c0,0.136,0.023,0.296,0.07,0.458l2.765,9.211
		c0.251,0.824,0.754,1.211,1.439,1.211c0.778,0,1.282-0.411,1.51-1.188l1.807-6.377l1.807,6.377c0.226,0.777,0.706,1.188,1.46,1.188
		c0.732,0,1.234-0.387,1.486-1.211l2.766-9.211c0.045-0.162,0.07-0.321,0.07-0.458C152.848,75.551,152.457,75.001,151.701,75.001
		 M131.153,77.174c1.579,0,2.241,0.893,2.241,2.422v0.344h-4.502v-0.411C128.891,78.066,129.577,77.174,131.153,77.174
		 M131.153,75.001c-2.833,0-4.619,1.83-4.619,4.595v2.858c0,2.628,1.672,4.594,4.619,4.594c0.87,0,2.539-0.251,3.565-0.775
		c0.434-0.207,0.619-0.572,0.619-0.983c0-0.597-0.458-1.077-1.075-1.077c-0.229,0-0.458,0.069-0.8,0.206
		c-0.595,0.229-1.303,0.481-2.31,0.481c-1.668,0-2.262-1.167-2.262-2.355v-0.434h5.416c0.916,0,1.441-0.731,1.441-1.395v-1.121
		C135.748,76.854,133.966,75.001,131.153,75.001 M119.016,70.567c-3.727,0-5.943,2.035-5.943,5.897v4.687
		c0,3.841,2.216,5.897,5.943,5.897c1.44,0,3.039-0.342,4.138-0.798c0.524-0.23,0.845-0.755,0.845-1.305v-5.714
		c0-0.779-0.593-1.373-1.394-1.373h-3.04c-0.709,0-1.167,0.502-1.167,1.145c0,0.662,0.458,1.165,1.167,1.165h2.034v4.229
		c-0.755,0.252-1.715,0.413-2.583,0.413c-2.354,0-3.521-1.257-3.521-3.568v-4.844c0-2.354,1.211-3.59,3.521-3.59
		c0.868,0,1.92,0.389,2.536,0.663c0.185,0.069,0.48,0.183,0.665,0.183c0.662,0,1.189-0.479,1.189-1.097
		c0-0.389-0.275-0.823-0.663-1.052C121.69,70.934,120.296,70.567,119.016,70.567"/>
	<path d="M283.805,50.216c-0.664,0-1.168,0.479-1.168,1.167v8.412c-0.732,0.183-1.459,0.319-2.238,0.319
		c-1.51,0-2.264-0.8-2.264-2.261v-6.47c0-0.688-0.504-1.167-1.189-1.167c-0.662,0-1.166,0.479-1.166,1.167v6.377
		c0,2.973,1.557,4.502,4.619,4.502c1.256,0,2.447-0.229,3.564-0.593c0.639-0.207,1.031-0.709,1.031-1.328v-8.959
		C284.994,50.695,284.49,50.216,283.805,50.216 M270.41,57.074v2.765c-0.688,0.184-1.375,0.274-2.105,0.274
		c-1.463,0-2.4-0.298-2.4-1.509c0-1.166,0.938-1.531,2.354-1.531H270.41z M268.305,50.216c-1.602,0-2.881,0.502-3.521,0.893
		c-0.342,0.206-0.549,0.55-0.549,0.936c0,0.641,0.549,1.098,1.099,1.098c0.363,0,0.66-0.16,1.051-0.342
		c0.596-0.299,1.232-0.411,2.01-0.411c1.35,0,2.016,0.706,2.016,1.599v0.914h-2.084c-2.604,0-4.776,1.006-4.776,3.659
		c0,2.627,1.897,3.701,4.776,3.701c1.281,0,2.605-0.229,3.523-0.55c0.615-0.203,0.912-0.752,0.912-1.278v-6.469
		C272.762,51.451,270.75,50.216,268.305,50.216 M256.419,50.216c-1.258,0-2.447,0.229-3.568,0.595
		c-0.66,0.206-1.027,0.708-1.027,1.35v8.937c0,0.685,0.502,1.166,1.188,1.166c0.664,0,1.168-0.481,1.168-1.166v-8.389
		c0.707-0.206,1.461-0.317,2.24-0.317c1.484,0,2.264,0.798,2.264,2.238v6.468c0,0.685,0.504,1.166,1.186,1.166
		c0.664,0,1.17-0.481,1.17-1.166V54.72C261.038,51.771,259.485,50.216,256.419,50.216 M244.352,52.39
		c1.575,0,2.237,0.891,2.237,2.421v0.342h-4.503v-0.411C242.086,53.281,242.771,52.39,244.352,52.39 M244.352,50.216
		c-2.836,0-4.621,1.829-4.621,4.596v2.858c0,2.626,1.672,4.593,4.621,4.593c0.865,0,2.534-0.252,3.565-0.776
		c0.432-0.205,0.615-0.573,0.615-0.984c0-0.595-0.457-1.074-1.074-1.074c-0.227,0-0.459,0.068-0.801,0.205
		c-0.596,0.229-1.302,0.48-2.306,0.48c-1.67,0-2.266-1.166-2.266-2.354v-0.434h5.417c0.916,0,1.438-0.732,1.438-1.396v-1.118
		C248.94,52.069,247.161,50.216,244.352,50.216 M228.967,45.782c-0.688,0-1.191,0.48-1.191,1.166v14.149
		c0,0.685,0.504,1.166,1.191,1.166c0.662,0,1.162-0.481,1.162-1.166v-7.909c0.711-0.548,1.488-0.798,2.287-0.798
		c1.42,0,2.219,0.752,2.219,2.238v6.468c0,0.685,0.502,1.166,1.189,1.166c0.66,0,1.164-0.481,1.164-1.166v-6.33
		c0-2.926-1.531-4.551-4.297-4.551c-0.754,0-1.807,0.251-2.563,0.664v-3.932C230.129,46.262,229.629,45.782,228.967,45.782
		 M221.103,45.782c-0.686,0-1.188,0.48-1.188,1.166v11.704c0,2.378,1.506,3.611,3.449,3.611c0.48,0,0.869-0.046,1.328-0.136
		c0.568-0.116,0.982-0.503,0.982-1.097c0-0.711-0.479-1.075-1.098-1.075c-0.365,0-0.572,0.114-1.143,0.114
		c-0.732,0-1.166-0.434-1.166-1.347v-6.036h2.238c0.754,0,1.168-0.481,1.168-1.12c0-0.641-0.414-1.12-1.168-1.12h-2.238v-3.497
		C222.269,46.262,221.765,45.782,221.103,45.782 M214.429,57.074v2.765c-0.688,0.184-1.371,0.274-2.105,0.274
		c-1.463,0-2.398-0.298-2.398-1.509c0-1.166,0.936-1.531,2.354-1.531H214.429z M212.323,50.216c-1.6,0-2.879,0.502-3.52,0.893
		c-0.344,0.206-0.549,0.55-0.549,0.936c0,0.641,0.549,1.098,1.098,1.098c0.365,0,0.662-0.16,1.053-0.342
		c0.594-0.299,1.232-0.411,2.01-0.411c1.348,0,2.014,0.706,2.014,1.599v0.914h-2.082c-2.607,0-4.777,1.006-4.777,3.659
		c0,2.627,1.896,3.701,4.777,3.701c1.281,0,2.607-0.229,3.521-0.55c0.615-0.203,0.914-0.752,0.914-1.278v-6.469
		C216.782,51.451,214.769,50.216,212.323,50.216 M200.461,48.251c1.623,0,2.559,0.913,2.584,2.467c0,1.486-0.916,2.4-2.584,2.4
		h-3.133v-4.867H200.461z M196.369,46.011c-0.799,0-1.439,0.639-1.439,1.394v13.646c0,0.731,0.502,1.212,1.209,1.212
		c0.688,0,1.189-0.481,1.189-1.212v-5.715h2.174l3.887,6.423c0.158,0.274,0.568,0.503,1.006,0.503c0.662,0,1.188-0.55,1.188-1.212
		c0-0.229-0.092-0.501-0.182-0.663l-3.271-5.37c2.08-0.504,3.314-2.036,3.314-4.3c0-2.834-1.805-4.708-4.982-4.708H196.369z
		 M184.161,50.216c-2.078,0-3.428,1.326-3.428,3.452v7.429c0,0.685,0.504,1.166,1.189,1.166c0.664,0,1.168-0.481,1.168-1.166v-7.36
		c0-0.802,0.502-1.304,1.232-1.304c0.57,0,1.027,0.138,1.371,0.138c0.66,0,1.118-0.458,1.118-1.076c0-0.594-0.342-1.006-0.937-1.119
		C185.442,50.284,184.825,50.216,184.161,50.216 M173.259,52.39c1.576,0,2.24,0.891,2.24,2.421v0.342h-4.504v-0.411
		C170.995,53.281,171.681,52.39,173.259,52.39 M173.259,50.216c-2.836,0-4.619,1.829-4.619,4.596v2.858
		c0,2.626,1.67,4.593,4.619,4.593c0.869,0,2.537-0.252,3.566-0.776c0.436-0.205,0.615-0.573,0.615-0.984
		c0-0.595-0.457-1.074-1.072-1.074c-0.229,0-0.459,0.068-0.799,0.205c-0.596,0.229-1.307,0.48-2.311,0.48
		c-1.668,0-2.264-1.166-2.264-2.354v-0.434h5.42c0.912,0,1.439-0.732,1.439-1.396v-1.118
		C177.854,52.069,176.069,50.216,173.259,50.216 M157.875,45.782c-0.688,0-1.189,0.48-1.189,1.166v14.149
		c0,0.685,0.502,1.166,1.189,1.166c0.662,0,1.164-0.481,1.164-1.166v-7.909c0.711-0.548,1.486-0.798,2.287-0.798
		c1.418,0,2.219,0.752,2.219,2.238v6.468c0,0.685,0.502,1.166,1.186,1.166c0.664,0,1.17-0.481,1.17-1.166v-6.33
		c0-2.926-1.535-4.551-4.299-4.551c-0.754,0-1.807,0.251-2.563,0.664v-3.932C159.039,46.262,158.537,45.782,157.875,45.782
		 M150.01,45.782c-0.686,0-1.188,0.48-1.188,1.166v11.704c0,2.378,1.508,3.611,3.451,3.611c0.48,0,0.869-0.046,1.326-0.136
		c0.574-0.116,0.982-0.503,0.982-1.097c0-0.711-0.48-1.075-1.098-1.075c-0.365,0-0.57,0.114-1.143,0.114
		c-0.73,0-1.166-0.434-1.166-1.347v-6.036h2.242c0.756,0,1.164-0.481,1.164-1.12c0-0.641-0.408-1.12-1.164-1.12h-2.242v-3.497
		C151.176,46.262,150.672,45.782,150.01,45.782 M144.251,45.782c-0.686,0-1.189,0.48-1.189,1.166v14.149
		c0,0.685,0.504,1.166,1.189,1.166c0.664,0,1.168-0.481,1.168-1.166V46.948C145.419,46.262,144.915,45.782,144.251,45.782
		 M137.576,57.074v2.765c-0.684,0.184-1.371,0.274-2.103,0.274c-1.462,0-2.4-0.298-2.4-1.509c0-1.166,0.938-1.531,2.354-1.531
		H137.576z M135.473,50.216c-1.599,0-2.879,0.502-3.519,0.893c-0.343,0.206-0.548,0.55-0.548,0.936c0,0.641,0.548,1.098,1.097,1.098
		c0.365,0,0.661-0.16,1.051-0.342c0.593-0.299,1.234-0.411,2.012-0.411c1.349,0,2.011,0.706,2.011,1.599v0.914h-2.08
		c-2.606,0-4.777,1.006-4.777,3.659c0,2.627,1.898,3.701,4.777,3.701c1.282,0,2.606-0.229,3.52-0.55
		c0.618-0.203,0.914-0.752,0.914-1.278v-6.469C139.93,51.451,137.92,50.216,135.473,50.216 M128.524,45.782
		c-0.572,0-1.029,0.366-1.143,0.845l-2.538,10.7l-2.354-10.265c-0.182-0.822-0.754-1.279-1.531-1.279
		c-0.754,0-1.35,0.458-1.533,1.279l-2.331,10.265l-2.562-10.7c-0.113-0.479-0.571-0.845-1.143-0.845
		c-0.662,0-1.166,0.503-1.166,1.099c0,0.181,0.047,0.364,0.093,0.57l3.291,13.557c0.183,0.799,0.755,1.255,1.509,1.255
		c0.754,0,1.326-0.457,1.508-1.279l2.333-10.104l2.331,10.104c0.182,0.822,0.777,1.279,1.531,1.279c0.731,0,1.303-0.457,1.509-1.255
		l3.293-13.557c0.044-0.206,0.09-0.39,0.09-0.57C129.713,46.285,129.188,45.782,128.524,45.782"/>
</g>
</svg>
